<?xml version="1.0"?><svg width="640" height="480" xmlns="http://www.w3.org/2000/svg">
 <defs>
  <g id="anchor">
   <path fill="#ffffff" stroke="#000000" d="m10,-206.100006l12,456.100006c11,102 65,52 121,4l-8,-11l44,-28l-14,52l-12,-6c-55,121 -117,65 -153,125c-36,-60 -98,-4 -153,-125l-12,6l-14,-52l44,28l-8,11c56,48 110,98 121,-4l12,-456.100006c-22.333099,-5.090195 -37.27898,-26.144196 -34.717819,-48.906387c2.56115,-22.762192 21.811989,-39.96846 44.717819,-39.96846c22.905849,0 42.156681,17.206268 44.717819,39.968491c2.561142,22.762192 -12.384739,43.816177 -34.717839,48.906342l0.00002,0.000015z" id="path3661"/>
   <circle fill="#0080ff" stroke="#000000" cx="0" cy="-250" r="25" id="circle3663"/>
   <path fill="#ffffff" stroke="#ffffff" d="m0,-240c38.64658,-0.01886 69.96582,-31.353394 69.96582,-70c0,-38.646576 -31.319241,-69.98114 -69.96582,-70l0,20c27.614229,0 50,22.385773 50,50c0,27.614258 -22.385771,50 -50,50l0,20z" id="path3665"/>
   <path fill="#ffffff" stroke="#ffffff" d="m0,-240c-38.64658,-0.01886 -69.965828,-31.353394 -69.96582,-70c0.000008,-38.646576 31.319241,-69.98114 69.96582,-70l0,20c-27.614241,0 -50,22.385773 -50,50c0,27.614258 22.385771,50 50,50l0,20z" id="path3667"/>
   <circle fill="none" stroke="#000000" cx="0" cy="-310" r="50" id="circle3669"/>
   <circle fill="none" stroke="#000000" cx="0" cy="-310" r="70" id="circle3671"/>
   <path fill="#ffffff" d="m0,-275c-13.80712,0 -25,11.192871 -25,25c0,13.807129 11.19288,25 25,25l0,20c-24.852819,-0.000015 -45,-20.147202 -45,-45.000015c0,-24.852798 20.14719,-44.999985 45,-44.999985l0,20z" id="path3673"/>
   <path fill="none" stroke="#000000" d="m0,-275c-13.80712,0 -25,11.192871 -25,25c0,13.807129 11.19288,25 25,25" id="path3675"/>
   <path fill="none" stroke="#000000" d="m-22,250l12,-456.100006c-24.2453,-5.522842 -39.422859,-29.654709 -33.900009,-53.900024c5.52285,-24.2453 29.654709,-39.422852 53.900019,-33.899994" id="path3677"/>
   <path fill="#ffffff" stroke="#000000" d="m128,-159l9,36c-101,23 -173,23 -274,0l9,-36l256,0z" id="path3679"/>
   <line stroke="#000000" x1="91" y1="-150" x2="96" y2="-122" id="line3681"/>
   <line stroke="#000000" x1="-91" y1="-150" x2="-96" y2="-122" id="line3683"/>
  </g>
  <g stroke="#000000" id="key">
   <path fill="#ffd700" d="m-51,-308c-49,-117 151,-117 102,0c130,-4 84,199 -37,112c6,9 6,19 0,28c6,9 6,19 0,28l0,514l-29,0l0,-514c-5,-9 -5,-19 1,-28c-6,-9 -6,-19 0,-28c-121,87 -167,-116 -37,-112z" id="path3652"/>
   <rect fill="#ffd700" x="-13" y="374" width="26" height="30" id="rect3654"/>
   <path fill="#ffd700" d="m-15,344l-15,0l0,30l-65,0l0,-22l33,0l0,-22l-33,0l0,-22l33,0l0,-22l-33,0l0,-22l65,0l0,30l15,0l0,50z" id="path3656"/>
   <path fill="#0080ff" d="m30,-292c151,2 57,170 -22,60c27,-16 19,-56 -8,-56c-27,0 -35,40 -8,56c-79,110 -173,-58 -22,-60c-54,-108 114,-108 60,0z" id="path3658"/>
  </g>
  <g id="shadow">
   <path d="m100,100l15,-15l0,40l-15,15l0,-40z" id="path3647"/>
   <path d="m100,100l15,-15l-66.700001,0l-15,15l66.700001,0z" id="path3649"/>
  </g>
 </defs>
 <metadata id="metadata7">image/svg+xml</metadata>
 <g>
  <title>Layer 1</title>
  <g id="g5366">
   <path stroke-width="2.5" fill="#fdd307" stroke="#000000" d="m208.004333,366.468964l-3.690613,3.386597c-1.042236,1.233887 -1.568787,1.113922 -3.019104,0.742615c-2.78772,-0.495331 -5.760376,0.271729 -8.008972,2.334961c-3.829529,3.514038 -4.110229,9.469299 -0.59613,13.298859c3.513977,3.829437 9.495178,4.086426 13.324646,0.572388c2.10376,-1.930481 3.119019,-4.598969 3.028625,-7.246948c-0.252319,-1.577484 -0.492065,-2.170319 0.664429,-3.231537l3.98584,-3.657501l-5.688721,-6.199432z" id="path5368"/>
   <path stroke-width="2.5" fill="#fdd307" fill-rule="evenodd" stroke="#000000" d="m221.115967,272.073792l-14.052063,12.894501l13.652954,14.878662l-9.092468,8.343506l-13.653015,-14.878662l-3.435486,3.152527l-4.003845,3.673981l-3.435486,3.152527l13.653015,14.878632l-9.092529,8.343506l-13.653015,-14.878662l-14.052063,12.894501l17.445496,19.011597l6.476563,-2.897797l4.551025,4.959534l-3.442566,6.204193l6.826477,7.439301l18.185059,-16.686981l8.343506,9.092499l20.793884,-19.081024l-8.343506,-9.092499l18.184998,-16.687012l-6.826477,-7.439301l-6.476563,2.897827l-4.550964,-4.959564l3.442505,-6.204193l-17.445435,-19.011597z" id="path5370"/>
   <path stroke-width="2.5" fill="#fdd307" fill-rule="evenodd" stroke="#000000" d="m454.420898,146.084946c-3.81311,-4.155457 -9.705261,-5.487808 -12.801453,-2.646683c-2.00061,1.835815 -2.45575,4.871521 -1.505432,7.900314l-2.763916,2.53624l-3.839905,-4.184631c-9.197327,6.086395 -21.73175,4.784744 -29.422424,-3.59639c-8.523315,-9.288467 -7.901184,-23.772873 1.387329,-32.296234c9.288574,-8.523376 23.74707,-7.877396 32.270386,1.411057c4.092041,4.459381 6.020325,10.105942 5.950134,15.71405l12.742615,-0.321167c-0.744263,-5.525497 1.133423,-11.317657 5.54834,-15.368881c2.688721,-2.467285 5.936951,-3.937714 9.296936,-4.439102c0.89801,-0.133926 1.808533,-0.210587 2.713562,-0.205902c0.135132,0.000656 0.260925,0.013123 0.396118,0.016922c0.124634,0.00351 0.248291,-0.014801 0.372681,-0.008713c0.523987,0.026031 1.060791,0.094788 1.58075,0.167053c0.559387,0.077896 1.122803,0.188797 1.673645,0.320129c0.098267,0.023331 0.196899,0.037079 0.294922,0.062195c0.450806,0.115692 0.880676,0.252625 1.322632,0.404297c1.075928,0.368973 2.138855,0.868835 3.138489,1.449799c0.417053,0.242386 0.832703,0.493454 1.232361,0.772598c0.155884,0.10881 0.303711,0.227783 0.456604,0.342117c0.394958,0.295532 0.776672,0.610138 1.150513,0.942688c0.43634,0.388046 0.858826,0.782104 1.262634,1.220474c0.008179,0.008881 0.015747,0.017136 0.023682,0.025833c0.4021,0.43988 0.758545,0.894791 1.107727,1.362625c0.299255,0.400986 0.580017,0.808212 0.840515,1.227112c0.037476,0.059891 0.079712,0.118347 0.116455,0.17865c0.011841,0.019592 0.035522,0.032089 0.047363,0.051666c0.063965,0.106003 0.098206,0.222504 0.159607,0.329391c0.228943,0.400482 0.447571,0.80542 0.642395,1.218597c0.493164,1.045898 0.876282,2.121826 1.151733,3.22551c0.025085,0.100021 0.062988,0.201096 0.086304,0.301468c0.104492,0.452606 0.195068,0.918152 0.263428,1.376007c0.147522,0.988724 0.215881,1.965012 0.195374,2.961121c-0.002563,0.132278 -0.011536,0.264099 -0.017029,0.396271c-0.024292,0.563705 -0.069885,1.146286 -0.147705,1.705734c-0.001953,0.017075 0.000244,0.032837 -0.002075,0.0495c-0.077148,0.543045 -0.190491,1.08902 -0.317871,1.623978c-0.78772,3.304657 -2.53125,6.414764 -5.220093,8.88205c-4.414917,4.051224 -10.346802,5.425171 -15.788025,4.2099l-1.41272,12.668152c5.593445,0.410919 11.053833,2.81636 15.145813,7.275635c8.523376,9.288559 7.927002,23.749146 -1.36145,32.272629c-9.288574,8.523361 -23.772949,7.901077 -32.296387,-1.387466c-7.690613,-8.381042 -7.912537,-20.980881 -1.059814,-29.622223l-3.839966,-4.184723l2.763916,-2.53624c2.936157,1.206482 5.999634,1.013306 8.000244,-0.822525c3.096191,-2.841125 2.273987,-8.82579 -1.53894,-12.981049l0,0.000168zm40.105774,-36.873398c-0.512146,-0.554764 -1.049683,-1.077927 -1.594421,-1.582108c-0.485107,-0.448929 -0.973694,-0.895844 -1.482483,-1.304413c-0.065247,-0.052368 -0.126038,-0.105331 -0.191711,-0.15715c-0.075195,-0.059418 -0.165527,-0.100555 -0.241272,-0.159241c-0.512634,-0.395554 -1.030701,-0.778687 -1.564087,-1.13414c-0.567566,-0.378235 -1.152161,-0.734497 -1.740723,-1.067291c-0.24823,-0.140594 -0.500122,-0.271896 -0.751709,-0.404388c-0.078918,-0.041519 -0.164246,-0.069153 -0.243469,-0.109833c-0.37854,-0.194656 -0.756165,-0.393631 -1.141724,-0.570114c-0.244385,-0.111816 -0.483215,-0.224594 -0.730103,-0.329025c-0.273254,-0.115448 -0.553345,-0.22702 -0.829468,-0.333481c-0.097717,-0.037628 -0.194763,-0.07518 -0.292969,-0.111832c-0.227051,-0.084534 -0.455872,-0.149277 -0.684937,-0.227921c-0.44342,-0.152191 -0.870972,-0.324295 -1.320435,-0.453735c-0.423828,-0.122345 -0.848755,-0.200806 -1.277161,-0.302994c-0.397522,-0.094696 -0.803223,-0.197708 -1.204041,-0.27504c-0.482422,-0.093002 -0.967712,-0.168457 -1.453857,-0.23613c-0.354553,-0.049347 -0.70575,-0.084305 -1.061646,-0.119949c-0.091187,-0.009262 -0.180237,-0.028259 -0.271484,-0.036575c-0.338867,-0.030655 -0.674438,-0.04982 -1.014343,-0.06839c-0.489746,-0.026627 -0.971802,-0.036865 -1.46228,-0.037903c-0.066406,-0.000198 -0.131775,-0.008835 -0.19812,-0.008514c-0.448669,0.002213 -0.893372,0.017975 -1.341736,0.041519c-0.406555,0.021393 -0.813293,0.032715 -1.218933,0.071701c-0.489197,0.047058 -0.986023,0.136978 -1.472961,0.209671c-0.441772,0.065964 -0.885376,0.128967 -1.32428,0.216141c-0.886292,0.175781 -1.763489,0.393753 -2.633484,0.656067c-0.440796,0.132751 -0.873901,0.285004 -1.309265,0.439926c-0.429016,0.152771 -0.838806,0.317322 -1.26178,0.491669c-0.082886,0.034271 -0.16925,0.053467 -0.251831,0.088531c-2.869263,1.215881 -5.586853,2.937866 -8.013,5.164215c-2.299133,2.109711 -4.135498,4.517242 -5.565613,7.105499c-1.207031,-2.151291 -2.662598,-4.198013 -4.402954,-6.094574c-12.186951,-13.28096 -32.859009,-14.193787 -46.140015,-2.006958c-13.280762,12.187119 -14.170044,32.884933 -1.983154,46.165878c7.436768,8.10437 18.043884,11.583847 28.191833,10.292511c-4.66394,4.149796 -11.554871,4.868179 -17.707825,6.732773l-1.45874,10.85495l-0.927734,0.803879c-0.318726,-0.724564 -0.737244,-1.425644 -1.301819,-2.040939c-2.766418,-3.014755 -7.437073,-3.215424 -10.451782,-0.449081c-3.014709,2.766342 -3.24115,7.460739 -0.474731,10.475494c0.510742,0.55658 1.108459,1.00058 1.727905,1.364487l-191.347717,174.823792l11.069336,12.06308l190.589172,-175.650497c0.309448,0.648346 0.700562,1.281982 1.211365,1.838654c2.766296,3.014664 7.462769,3.191528 10.477417,0.425171c3.014709,-2.766342 3.215393,-7.436935 0.449097,-10.451584c-0.564697,-0.615402 -1.227417,-1.09256 -1.921814,-1.472076l0.880371,-0.855438l10.940063,-0.522552c2.385376,-5.970306 3.692139,-12.774216 8.226501,-17.06517c-2.156738,9.999908 0.400269,20.866211 7.837036,28.970581c12.18689,13.280945 32.884644,14.169876 46.165771,1.983154c13.280762,-12.187134 14.144226,-32.861115 1.957275,-46.142075c-1.740295,-1.896561 -3.654663,-3.522278 -5.694519,-4.909424c2.701233,-1.202957 5.257507,-2.825989 7.55658,-4.935684c2.42627,-2.226349 4.374878,-4.786346 5.832336,-7.540665c0.041809,-0.078888 0.068848,-0.164215 0.109741,-0.243423c0.07074,-0.136642 0.12323,-0.275879 0.191528,-0.413483c0.133118,-0.268555 0.282471,-0.529602 0.406555,-0.801453c0.047302,-0.103622 0.091736,-0.212616 0.137634,-0.31665c0.050842,-0.11467 0.114502,-0.22493 0.163513,-0.340363c0.194641,-0.456985 0.362,-0.926376 0.531189,-1.39151c0.054077,-0.148285 0.116333,-0.290359 0.167908,-0.439316c0.005005,-0.015411 -0.003296,-0.034393 0.002075,-0.0495c0.047241,-0.137589 0.096863,-0.277542 0.141907,-0.415726c0.155823,-0.478271 0.304749,-0.960617 0.434265,-1.445297c0.011047,-0.040955 0.019348,-0.081665 0.030029,-0.122742c0.053772,-0.204483 0.101379,-0.408401 0.150513,-0.613846c0.114136,-0.478928 0.24646,-0.966095 0.335205,-1.449554c0.108459,-0.590607 0.18042,-1.205124 0.250977,-1.800552c0.012695,-0.10733 0.027222,-0.213425 0.038635,-0.320908c0.064392,-0.601837 0.100464,-1.176712 0.12616,-1.781097c0.019165,-0.448303 0.01001,-0.890762 0.007874,-1.339554c-0.002258,-0.444931 -0.01825,-0.89711 -0.041565,-1.341675c-0.016602,-0.31543 -0.031494,-0.630554 -0.058655,-0.945404c-0.016418,-0.190521 -0.029541,-0.382553 -0.049866,-0.57283c-0.036926,-0.34584 -0.079834,-0.678162 -0.129761,-1.022888c-0.009644,-0.06749 -0.030823,-0.132843 -0.041016,-0.200241c-0.131714,-0.869415 -0.295654,-1.72081 -0.509583,-2.577606c-0.103333,-0.413879 -0.22052,-0.845398 -0.34314,-1.255371c-0.062317,-0.207993 -0.128967,-0.421967 -0.196289,-0.628754c-0.096252,-0.296066 -0.178345,-0.587219 -0.284729,-0.880676c-0.171692,-0.473648 -0.362244,-0.922729 -0.560669,-1.388779c-0.116943,-0.275345 -0.259644,-0.563004 -0.385925,-0.835403c-0.264832,-0.568619 -0.539551,-1.144775 -0.845093,-1.698761c-0.293152,-0.533768 -0.593872,-1.059799 -0.924744,-1.57811c-0.112976,-0.177109 -0.231628,-0.360825 -0.349182,-0.536026c-0.359436,-0.536102 -0.747925,-1.046692 -1.148682,-1.562927c-0.459595,-0.591965 -0.925476,-1.161423 -1.439514,-1.724258c-0.015869,-0.017395 -0.031494,-0.034302 -0.047424,-0.051666c-0.007874,-0.008575 -0.015808,-0.017258 -0.023743,-0.025833l-0.000061,-0.000275z" id="path5372"/>
  </g>
  <path fill="#ffffff" d="m47.820988,139.744064c-12.758797,14.255051 -11.519878,36.174408 2.735184,48.933228c14.25507,12.758789 36.174435,11.519913 48.933224,-2.735153c2.197929,-2.455719 3.946747,-5.118225 5.320183,-7.941681c-0.45018,-0.670959 -0.987381,-1.307175 -1.618172,-1.87178c-2.5093,-2.245911 -5.832298,-2.977234 -8.863495,-2.240128c-0.866356,1.620697 -1.91745,3.141098 -3.197861,4.571671c-8.628731,9.640701 -23.451279,10.486542 -33.091976,1.857742c-9.640705,-8.628769 -10.486546,-23.451294 -1.857742,-33.091995c8.628819,-9.640732 23.477406,-10.46315 33.118099,-1.834351c4.143921,3.708984 6.650543,8.573502 7.485115,13.662842c3.958061,0.018616 7.914902,0.964539 11.507698,2.912979c-0.236732,-9.206131 -4.106689,-18.308121 -11.510902,-24.93515c-14.255058,-12.758789 -36.200584,-11.543251 -48.959362,2.711777l0.000008,0z" id="path2430"/>
 </g>
</svg>